 <svg version="1.0" xmlns="http://www.w3.org/2000/svg" width="700.000000pt" height="700.000000pt" viewBox="0 0 700.000000 700.000000" preserveAspectRatio="xMidYMid meet">
<metadata>
Created by potrace 1.12, written by Peter Selinger 2001-2015
</metadata>
<g transform="translate(0.000000,700.000000) scale(0.100000,-0.100000)" fill="#000000" stroke="none">
<path d="M620 6981 c0 -37 -39 -70 -108 -91 -37 -11 -79 -28 -94 -38 -68 -45
-148 -119 -209 -192 -55 -65 -73 -97 -94 -160 -26 -79 -66 -130 -101 -130 -12
0 -14 -391 -12 -2867 l3 -2868 22 -3 c33 -5 58 -43 88 -132 21 -64 40 -96 96
-165 39 -47 74 -85 78 -85 5 0 36 -25 70 -55 49 -43 76 -59 134 -76 77 -24
127 -62 127 -98 l0 -21 2879 0 2880 0 6 23 c13 41 47 66 128 93 59 20 93 38
132 73 28 25 62 55 76 67 71 61 169 208 169 253 0 8 12 34 26 58 18 31 34 45
55 50 l29 6 0 2871 0 2872 -35 17 c-27 13 -42 31 -60 70 -14 28 -25 59 -25 67
-1 40 -101 167 -211 267 -67 61 -90 76 -147 93 -93 28 -131 53 -139 90 l-5 30
-2879 0 c-2803 0 -2879 0 -2879 -19z m3760 -725 c40 -38 100 -98 134 -134 l61
-65 0 -2557 0 -2557 -61 -65 c-34 -36 -94 -96 -134 -134 l-73 -69 -210 2 -211
2 -52 53 c-29 29 -62 62 -74 73 -59 57 -121 130 -125 149 -3 11 -6 433 -7 937
-3 886 -4 918 -22 938 -31 34 -69 27 -118 -22 l-43 -44 -184 -6 c-101 -4 -227
-7 -279 -7 l-95 0 -45 -46 c-55 -58 -78 -63 -254 -64 l-138 0 -55 -50 c-52
-47 -59 -50 -108 -50 -74 0 -169 -19 -189 -37 -29 -26 -21 -60 24 -109 l42
-45 6 -119 6 -120 36 -37 c47 -49 57 -75 64 -181 8 -101 14 -116 64 -159 32
-28 38 -40 48 -99 8 -49 20 -79 42 -108 65 -86 67 -94 63 -328 -2 -117 -3
-225 -3 -239 0 -25 -28 -56 -205 -228 l-50 -49 -192 -6 c-119 -3 -203 -2 -219
4 -28 11 -294 272 -294 289 0 5 -15 19 -33 30 -37 23 -57 58 -57 101 0 43 -17
79 -59 125 -37 40 -38 44 -45 139 -9 122 -16 141 -72 192 l-44 41 0 168 0 168
-52 48 -53 49 3 122 c4 167 -8 219 -63 273 -34 33 -45 51 -50 87 -4 25 -5 578
-3 1229 3 1164 3 1185 23 1215 83 131 77 113 82 267 5 165 13 197 56 233 48
40 56 62 57 151 0 45 5 94 10 109 13 34 96 124 214 233 50 46 98 94 106 107
28 45 65 54 232 54 168 -1 218 -8 257 -40 14 -11 48 -37 74 -56 26 -20 55 -50
64 -68 9 -17 35 -47 57 -67 l41 -37 -2 -242 c-2 -134 -3 -254 -3 -267 0 -15
-16 -39 -44 -67 -52 -50 -54 -58 -58 -188 l-3 -97 -41 -43 c-63 -65 -67 -77
-69 -228 -2 -74 -3 -141 -4 -148 0 -7 -22 -36 -48 -64 l-48 -50 0 -392 c0
-420 0 -419 52 -454 22 -14 46 -17 125 -15 107 2 162 20 180 58 21 47 37 50
323 55 l270 5 49 30 c26 17 62 39 80 50 27 18 45 20 141 17 61 -2 121 -4 135
-4 14 0 78 4 144 10 108 9 121 12 145 36 l26 26 5 1098 c3 603 6 1098 8 1098
1 1 24 26 52 55 27 30 59 63 70 74 12 11 45 43 73 72 29 28 63 53 77 55 14 2
109 3 211 3 l186 0 73 -69z"></path>
</g>
</svg>